<mxfile host="app.diagrams.net" agent="Mozilla/5.0 (X11; Linux x86_64; rv:133.0) Gecko/20100101 Firefox/133.0" version="26.0.10" pages="2">
  <diagram name="Page-1" id="PTJs6Wrx1pEo9TD-3wmT">
    <mxGraphModel dx="1185" dy="675" grid="1" gridSize="10" guides="1" tooltips="1" connect="1" arrows="1" fold="1" page="1" pageScale="1" pageWidth="850" pageHeight="1100" math="0" shadow="0">
      <root>
        <mxCell id="0" />
        <mxCell id="1" parent="0" />
        <mxCell id="DiT0c7Oynpjk7wpShb2W-9" style="edgeStyle=orthogonalEdgeStyle;rounded=0;orthogonalLoop=1;jettySize=auto;html=1;exitX=0.5;exitY=1;exitDx=0;exitDy=0;" edge="1" parent="1" source="DiT0c7Oynpjk7wpShb2W-1" target="DiT0c7Oynpjk7wpShb2W-2">
          <mxGeometry relative="1" as="geometry" />
        </mxCell>
        <mxCell id="DiT0c7Oynpjk7wpShb2W-10" style="edgeStyle=orthogonalEdgeStyle;rounded=0;orthogonalLoop=1;jettySize=auto;html=1;exitX=0.5;exitY=1;exitDx=0;exitDy=0;entryX=0.5;entryY=0;entryDx=0;entryDy=0;" edge="1" parent="1" source="DiT0c7Oynpjk7wpShb2W-1" target="DiT0c7Oynpjk7wpShb2W-6">
          <mxGeometry relative="1" as="geometry" />
        </mxCell>
        <mxCell id="DiT0c7Oynpjk7wpShb2W-1" value="NGS" style="rounded=0;whiteSpace=wrap;html=1;" vertex="1" parent="1">
          <mxGeometry x="190" y="30" width="120" height="60" as="geometry" />
        </mxCell>
        <mxCell id="DiT0c7Oynpjk7wpShb2W-13" style="edgeStyle=orthogonalEdgeStyle;rounded=0;orthogonalLoop=1;jettySize=auto;html=1;exitX=0.5;exitY=1;exitDx=0;exitDy=0;entryX=0.5;entryY=0;entryDx=0;entryDy=0;" edge="1" parent="1" source="DiT0c7Oynpjk7wpShb2W-2" target="DiT0c7Oynpjk7wpShb2W-3">
          <mxGeometry relative="1" as="geometry" />
        </mxCell>
        <mxCell id="DiT0c7Oynpjk7wpShb2W-2" value="TELESCOPE" style="rounded=0;whiteSpace=wrap;html=1;" vertex="1" parent="1">
          <mxGeometry x="90" y="290" width="120" height="60" as="geometry" />
        </mxCell>
        <mxCell id="DiT0c7Oynpjk7wpShb2W-14" style="edgeStyle=orthogonalEdgeStyle;rounded=0;orthogonalLoop=1;jettySize=auto;html=1;exitX=0.5;exitY=1;exitDx=0;exitDy=0;" edge="1" parent="1" source="DiT0c7Oynpjk7wpShb2W-3" target="DiT0c7Oynpjk7wpShb2W-4">
          <mxGeometry relative="1" as="geometry" />
        </mxCell>
        <mxCell id="DiT0c7Oynpjk7wpShb2W-3" value="&lt;div&gt;DEFORMABLE&lt;/div&gt;&lt;div&gt;MIRROR&lt;br&gt;&lt;/div&gt;" style="rounded=0;whiteSpace=wrap;html=1;" vertex="1" parent="1">
          <mxGeometry x="90" y="370" width="120" height="60" as="geometry" />
        </mxCell>
        <mxCell id="DiT0c7Oynpjk7wpShb2W-19" style="edgeStyle=orthogonalEdgeStyle;rounded=0;orthogonalLoop=1;jettySize=auto;html=1;exitX=0.5;exitY=1;exitDx=0;exitDy=0;entryX=0.5;entryY=0;entryDx=0;entryDy=0;" edge="1" parent="1" source="DiT0c7Oynpjk7wpShb2W-4" target="DiT0c7Oynpjk7wpShb2W-17">
          <mxGeometry relative="1" as="geometry" />
        </mxCell>
        <mxCell id="DiT0c7Oynpjk7wpShb2W-4" value="&lt;div&gt;WAVEFRONT&lt;/div&gt;&lt;div&gt;SENSOR&lt;br&gt;&lt;/div&gt;" style="rounded=0;whiteSpace=wrap;html=1;" vertex="1" parent="1">
          <mxGeometry x="90" y="450" width="120" height="60" as="geometry" />
        </mxCell>
        <mxCell id="DiT0c7Oynpjk7wpShb2W-11" style="edgeStyle=orthogonalEdgeStyle;rounded=0;orthogonalLoop=1;jettySize=auto;html=1;exitX=0.5;exitY=1;exitDx=0;exitDy=0;entryX=0.5;entryY=0;entryDx=0;entryDy=0;" edge="1" parent="1" source="DiT0c7Oynpjk7wpShb2W-6" target="DiT0c7Oynpjk7wpShb2W-7">
          <mxGeometry relative="1" as="geometry" />
        </mxCell>
        <mxCell id="DiT0c7Oynpjk7wpShb2W-6" value="TELESCOPE" style="rounded=0;whiteSpace=wrap;html=1;" vertex="1" parent="1">
          <mxGeometry x="300" y="290" width="120" height="60" as="geometry" />
        </mxCell>
        <mxCell id="DiT0c7Oynpjk7wpShb2W-12" style="edgeStyle=orthogonalEdgeStyle;rounded=0;orthogonalLoop=1;jettySize=auto;html=1;exitX=0.5;exitY=1;exitDx=0;exitDy=0;" edge="1" parent="1" source="DiT0c7Oynpjk7wpShb2W-7" target="DiT0c7Oynpjk7wpShb2W-8">
          <mxGeometry relative="1" as="geometry" />
        </mxCell>
        <mxCell id="DiT0c7Oynpjk7wpShb2W-7" value="&lt;div&gt;DEFORMABLE&lt;/div&gt;&lt;div&gt;MIRROR&lt;br&gt;&lt;/div&gt;" style="rounded=0;whiteSpace=wrap;html=1;" vertex="1" parent="1">
          <mxGeometry x="300" y="370" width="120" height="60" as="geometry" />
        </mxCell>
        <mxCell id="DiT0c7Oynpjk7wpShb2W-20" style="edgeStyle=orthogonalEdgeStyle;rounded=0;orthogonalLoop=1;jettySize=auto;html=1;exitX=0.5;exitY=1;exitDx=0;exitDy=0;entryX=0.5;entryY=0;entryDx=0;entryDy=0;" edge="1" parent="1" source="DiT0c7Oynpjk7wpShb2W-8" target="DiT0c7Oynpjk7wpShb2W-16">
          <mxGeometry relative="1" as="geometry" />
        </mxCell>
        <mxCell id="DiT0c7Oynpjk7wpShb2W-8" value="&lt;div&gt;WAVEFRONT&lt;/div&gt;&lt;div&gt;SENSOR&lt;br&gt;&lt;/div&gt;" style="rounded=0;whiteSpace=wrap;html=1;" vertex="1" parent="1">
          <mxGeometry x="300" y="450" width="120" height="60" as="geometry" />
        </mxCell>
        <mxCell id="DiT0c7Oynpjk7wpShb2W-37" style="edgeStyle=orthogonalEdgeStyle;rounded=0;orthogonalLoop=1;jettySize=auto;html=1;exitX=0.5;exitY=1;exitDx=0;exitDy=0;entryX=0.5;entryY=0;entryDx=0;entryDy=0;" edge="1" parent="1" source="DiT0c7Oynpjk7wpShb2W-16" target="DiT0c7Oynpjk7wpShb2W-35">
          <mxGeometry relative="1" as="geometry" />
        </mxCell>
        <mxCell id="DiT0c7Oynpjk7wpShb2W-16" value="&lt;div&gt;DELAY &lt;br&gt;&lt;/div&gt;&lt;div&gt;LINE&lt;br&gt;&lt;/div&gt;" style="rounded=0;whiteSpace=wrap;html=1;" vertex="1" parent="1">
          <mxGeometry x="300" y="530" width="120" height="60" as="geometry" />
        </mxCell>
        <mxCell id="DiT0c7Oynpjk7wpShb2W-38" style="edgeStyle=orthogonalEdgeStyle;rounded=0;orthogonalLoop=1;jettySize=auto;html=1;exitX=0.5;exitY=1;exitDx=0;exitDy=0;entryX=0.5;entryY=0;entryDx=0;entryDy=0;" edge="1" parent="1" source="DiT0c7Oynpjk7wpShb2W-17" target="DiT0c7Oynpjk7wpShb2W-36">
          <mxGeometry relative="1" as="geometry" />
        </mxCell>
        <mxCell id="DiT0c7Oynpjk7wpShb2W-17" value="&lt;div&gt;DELAY&lt;/div&gt;&lt;div&gt;LINE&lt;/div&gt;" style="rounded=0;whiteSpace=wrap;html=1;" vertex="1" parent="1">
          <mxGeometry x="90" y="530" width="120" height="60" as="geometry" />
        </mxCell>
        <mxCell id="DiT0c7Oynpjk7wpShb2W-26" style="edgeStyle=orthogonalEdgeStyle;rounded=0;orthogonalLoop=1;jettySize=auto;html=1;exitX=0.5;exitY=1;exitDx=0;exitDy=0;entryX=0.5;entryY=0;entryDx=0;entryDy=0;" edge="1" parent="1" source="DiT0c7Oynpjk7wpShb2W-18" target="DiT0c7Oynpjk7wpShb2W-24">
          <mxGeometry relative="1" as="geometry" />
        </mxCell>
        <mxCell id="DiT0c7Oynpjk7wpShb2W-18" value="&lt;div&gt;BEAM&lt;/div&gt;&lt;div&gt;COMBINER&lt;br&gt;&lt;/div&gt;" style="rounded=0;whiteSpace=wrap;html=1;" vertex="1" parent="1">
          <mxGeometry x="190" y="720" width="120" height="60" as="geometry" />
        </mxCell>
        <mxCell id="DiT0c7Oynpjk7wpShb2W-27" style="edgeStyle=orthogonalEdgeStyle;rounded=0;orthogonalLoop=1;jettySize=auto;html=1;exitX=0.5;exitY=1;exitDx=0;exitDy=0;entryX=0.5;entryY=0;entryDx=0;entryDy=0;" edge="1" parent="1" source="DiT0c7Oynpjk7wpShb2W-24" target="DiT0c7Oynpjk7wpShb2W-25">
          <mxGeometry relative="1" as="geometry" />
        </mxCell>
        <mxCell id="DiT0c7Oynpjk7wpShb2W-24" value="SPECTOGRAPH" style="rounded=0;whiteSpace=wrap;html=1;" vertex="1" parent="1">
          <mxGeometry x="190" y="800" width="120" height="60" as="geometry" />
        </mxCell>
        <mxCell id="DiT0c7Oynpjk7wpShb2W-25" value="DETECTOR" style="rounded=0;whiteSpace=wrap;html=1;" vertex="1" parent="1">
          <mxGeometry x="190" y="880" width="120" height="60" as="geometry" />
        </mxCell>
        <mxCell id="DiT0c7Oynpjk7wpShb2W-28" value="" style="shape=curlyBracket;whiteSpace=wrap;html=1;rounded=1;flipH=1;labelPosition=right;verticalLabelPosition=middle;align=left;verticalAlign=middle;" vertex="1" parent="1">
          <mxGeometry x="435" y="360" width="20" height="160" as="geometry" />
        </mxCell>
        <mxCell id="DiT0c7Oynpjk7wpShb2W-31" value="&lt;font style=&quot;font-size: 18px;&quot;&gt;AO system&lt;/font&gt;" style="text;html=1;align=center;verticalAlign=middle;whiteSpace=wrap;rounded=0;rotation=90;" vertex="1" parent="1">
          <mxGeometry x="430" y="425" width="100" height="30" as="geometry" />
        </mxCell>
        <mxCell id="DiT0c7Oynpjk7wpShb2W-40" style="edgeStyle=orthogonalEdgeStyle;rounded=0;orthogonalLoop=1;jettySize=auto;html=1;exitX=0.5;exitY=1;exitDx=0;exitDy=0;" edge="1" parent="1" source="DiT0c7Oynpjk7wpShb2W-35">
          <mxGeometry relative="1" as="geometry">
            <mxPoint x="250" y="720" as="targetPoint" />
          </mxGeometry>
        </mxCell>
        <mxCell id="DiT0c7Oynpjk7wpShb2W-35" value="&lt;div&gt;FIBER &lt;br&gt;&lt;/div&gt;&lt;div&gt;INJECTION&lt;br&gt;&lt;/div&gt;" style="rounded=0;whiteSpace=wrap;html=1;" vertex="1" parent="1">
          <mxGeometry x="300" y="610" width="120" height="60" as="geometry" />
        </mxCell>
        <mxCell id="DiT0c7Oynpjk7wpShb2W-39" style="edgeStyle=orthogonalEdgeStyle;rounded=0;orthogonalLoop=1;jettySize=auto;html=1;exitX=0.5;exitY=1;exitDx=0;exitDy=0;" edge="1" parent="1" source="DiT0c7Oynpjk7wpShb2W-36" target="DiT0c7Oynpjk7wpShb2W-18">
          <mxGeometry relative="1" as="geometry" />
        </mxCell>
        <mxCell id="DiT0c7Oynpjk7wpShb2W-36" value="&lt;div&gt;FIBER&lt;/div&gt;&lt;div&gt;INJECTION&lt;br&gt;&lt;/div&gt;" style="rounded=0;whiteSpace=wrap;html=1;" vertex="1" parent="1">
          <mxGeometry x="90" y="610" width="120" height="60" as="geometry" />
        </mxCell>
        <mxCell id="DiT0c7Oynpjk7wpShb2W-41" value="" style="shape=curlyBracket;whiteSpace=wrap;html=1;rounded=1;flipH=1;labelPosition=right;verticalLabelPosition=middle;align=left;verticalAlign=middle;" vertex="1" parent="1">
          <mxGeometry x="325" y="790" width="20" height="160" as="geometry" />
        </mxCell>
        <mxCell id="DiT0c7Oynpjk7wpShb2W-42" value="&lt;font style=&quot;font-size: 18px;&quot;&gt;FRINGE TRACKER&lt;/font&gt;" style="text;html=1;align=center;verticalAlign=middle;whiteSpace=wrap;rounded=0;rotation=90;" vertex="1" parent="1">
          <mxGeometry x="285" y="855" width="170" height="30" as="geometry" />
        </mxCell>
        <mxCell id="DiT0c7Oynpjk7wpShb2W-44" value="ATMOSPHERE" style="rounded=0;whiteSpace=wrap;html=1;" vertex="1" parent="1">
          <mxGeometry x="190" y="110" width="120" height="60" as="geometry" />
        </mxCell>
      </root>
    </mxGraphModel>
  </diagram>
  <diagram id="rNMhW3AsfbTQ8SWqJDRD" name="Page-2">
    <mxGraphModel dx="2074" dy="2281" grid="1" gridSize="10" guides="1" tooltips="1" connect="1" arrows="1" fold="1" page="1" pageScale="1" pageWidth="850" pageHeight="1100" math="1" shadow="0">
      <root>
        <mxCell id="0" />
        <mxCell id="1" parent="0" />
        <mxCell id="pVsfDiIIZVp4WmUJKpTQ-3" value="&amp;lt;&amp;lt;keyword&amp;gt;&amp;gt;&lt;br&gt;&lt;b&gt;Source&lt;/b&gt;&lt;br&gt;{abstract}" style="swimlane;fontStyle=0;align=center;verticalAlign=top;childLayout=stackLayout;horizontal=1;startSize=55;horizontalStack=0;resizeParent=1;resizeParentMax=0;resizeLast=0;collapsible=0;marginBottom=0;html=1;whiteSpace=wrap;" vertex="1" parent="1">
          <mxGeometry x="308" y="50" width="240" height="370" as="geometry" />
        </mxCell>
        <mxCell id="pVsfDiIIZVp4WmUJKpTQ-4" value="attributes" style="text;html=1;strokeColor=none;fillColor=none;align=center;verticalAlign=middle;spacingLeft=4;spacingRight=4;overflow=hidden;rotatable=0;points=[[0,0.5],[1,0.5]];portConstraint=eastwest;whiteSpace=wrap;" vertex="1" parent="pVsfDiIIZVp4WmUJKpTQ-3">
          <mxGeometry y="55" width="240" height="20" as="geometry" />
        </mxCell>
        <mxCell id="pVsfDiIIZVp4WmUJKpTQ-5" value="&lt;div&gt;+resolution: int&lt;/div&gt;&lt;div&gt;+fieldView: float&lt;br&gt;&lt;/div&gt;&lt;div&gt;+position: (2 x float) = (0, 0)&lt;br&gt;&lt;/div&gt;&lt;div&gt;+type: str = &quot;PointLike&quot;&lt;br&gt;&lt;/div&gt;&lt;div&gt;+magnitude: float&lt;/div&gt;&lt;div&gt;+waveBand: str&lt;/div&gt;&lt;div&gt;+pixelScale: float = fieldView / resolution&lt;br&gt;&lt;/div&gt;&lt;div&gt;+sourceGrid: meshgrid&lt;/div&gt;&lt;div&gt;+amplitudeValues: matrix&lt;/div&gt;&lt;div&gt;+phaseValues: matrix&lt;br&gt;&lt;/div&gt;" style="text;html=1;strokeColor=none;fillColor=none;align=left;verticalAlign=middle;spacingLeft=4;spacingRight=4;overflow=hidden;rotatable=0;points=[[0,0.5],[1,0.5]];portConstraint=eastwest;whiteSpace=wrap;" vertex="1" parent="pVsfDiIIZVp4WmUJKpTQ-3">
          <mxGeometry y="75" width="240" height="155" as="geometry" />
        </mxCell>
        <mxCell id="pVsfDiIIZVp4WmUJKpTQ-6" value="inherited attribute2" style="text;html=1;strokeColor=none;fillColor=none;align=left;verticalAlign=middle;spacingLeft=4;spacingRight=4;overflow=hidden;rotatable=0;points=[[0,0.5],[1,0.5]];portConstraint=eastwest;fontColor=#808080;whiteSpace=wrap;" vertex="1" parent="pVsfDiIIZVp4WmUJKpTQ-3">
          <mxGeometry y="230" width="240" height="20" as="geometry" />
        </mxCell>
        <mxCell id="pVsfDiIIZVp4WmUJKpTQ-7" value="..." style="text;html=1;strokeColor=none;fillColor=none;align=left;verticalAlign=middle;spacingLeft=4;spacingRight=4;overflow=hidden;rotatable=0;points=[[0,0.5],[1,0.5]];portConstraint=eastwest;whiteSpace=wrap;" vertex="1" parent="pVsfDiIIZVp4WmUJKpTQ-3">
          <mxGeometry y="250" width="240" height="20" as="geometry" />
        </mxCell>
        <mxCell id="pVsfDiIIZVp4WmUJKpTQ-8" value="" style="line;strokeWidth=1;fillColor=none;align=left;verticalAlign=middle;spacingTop=-1;spacingLeft=3;spacingRight=3;rotatable=0;labelPosition=right;points=[];portConstraint=eastwest;" vertex="1" parent="pVsfDiIIZVp4WmUJKpTQ-3">
          <mxGeometry y="270" width="240" height="8" as="geometry" />
        </mxCell>
        <mxCell id="pVsfDiIIZVp4WmUJKpTQ-9" value="operations" style="text;html=1;strokeColor=none;fillColor=none;align=center;verticalAlign=middle;spacingLeft=4;spacingRight=4;overflow=hidden;rotatable=0;points=[[0,0.5],[1,0.5]];portConstraint=eastwest;whiteSpace=wrap;" vertex="1" parent="pVsfDiIIZVp4WmUJKpTQ-3">
          <mxGeometry y="278" width="240" height="20" as="geometry" />
        </mxCell>
        <mxCell id="pVsfDiIIZVp4WmUJKpTQ-10" value="&lt;div&gt;&lt;br&gt;&lt;/div&gt;&lt;div&gt;+initialize()&lt;br&gt;&lt;/div&gt;&lt;div&gt;+generateField()&lt;/div&gt;&lt;div&gt;+show()&lt;/div&gt;" style="text;html=1;strokeColor=none;fillColor=none;align=left;verticalAlign=middle;spacingLeft=4;spacingRight=4;overflow=hidden;rotatable=0;points=[[0,0.5],[1,0.5]];portConstraint=eastwest;whiteSpace=wrap;" vertex="1" parent="pVsfDiIIZVp4WmUJKpTQ-3">
          <mxGeometry y="298" width="240" height="72" as="geometry" />
        </mxCell>
        <mxCell id="pVsfDiIIZVp4WmUJKpTQ-12" value="&amp;lt;&amp;lt;keyword&amp;gt;&amp;gt;&lt;br&gt;&lt;b&gt;Binary&lt;/b&gt;&lt;br&gt;{abstract}" style="swimlane;fontStyle=0;align=center;verticalAlign=top;childLayout=stackLayout;horizontal=1;startSize=55;horizontalStack=0;resizeParent=1;resizeParentMax=0;resizeLast=0;collapsible=0;marginBottom=0;html=1;whiteSpace=wrap;" vertex="1" parent="1">
          <mxGeometry x="103" y="470" width="240" height="250" as="geometry" />
        </mxCell>
        <mxCell id="pVsfDiIIZVp4WmUJKpTQ-13" value="attributes" style="text;html=1;strokeColor=none;fillColor=none;align=center;verticalAlign=middle;spacingLeft=4;spacingRight=4;overflow=hidden;rotatable=0;points=[[0,0.5],[1,0.5]];portConstraint=eastwest;whiteSpace=wrap;" vertex="1" parent="pVsfDiIIZVp4WmUJKpTQ-12">
          <mxGeometry y="55" width="240" height="20" as="geometry" />
        </mxCell>
        <mxCell id="pVsfDiIIZVp4WmUJKpTQ-14" value="&lt;div&gt;+separation: float&lt;/div&gt;&lt;div&gt;+rotation: float&lt;/div&gt;" style="text;html=1;strokeColor=none;fillColor=none;align=left;verticalAlign=middle;spacingLeft=4;spacingRight=4;overflow=hidden;rotatable=0;points=[[0,0.5],[1,0.5]];portConstraint=eastwest;whiteSpace=wrap;" vertex="1" parent="pVsfDiIIZVp4WmUJKpTQ-12">
          <mxGeometry y="75" width="240" height="65" as="geometry" />
        </mxCell>
        <mxCell id="pVsfDiIIZVp4WmUJKpTQ-15" value="inherited attribute2" style="text;html=1;strokeColor=none;fillColor=none;align=left;verticalAlign=middle;spacingLeft=4;spacingRight=4;overflow=hidden;rotatable=0;points=[[0,0.5],[1,0.5]];portConstraint=eastwest;fontColor=#808080;whiteSpace=wrap;" vertex="1" parent="pVsfDiIIZVp4WmUJKpTQ-12">
          <mxGeometry y="140" width="240" height="20" as="geometry" />
        </mxCell>
        <mxCell id="pVsfDiIIZVp4WmUJKpTQ-16" value="..." style="text;html=1;strokeColor=none;fillColor=none;align=left;verticalAlign=middle;spacingLeft=4;spacingRight=4;overflow=hidden;rotatable=0;points=[[0,0.5],[1,0.5]];portConstraint=eastwest;whiteSpace=wrap;" vertex="1" parent="pVsfDiIIZVp4WmUJKpTQ-12">
          <mxGeometry y="160" width="240" height="20" as="geometry" />
        </mxCell>
        <mxCell id="pVsfDiIIZVp4WmUJKpTQ-17" value="" style="line;strokeWidth=1;fillColor=none;align=left;verticalAlign=middle;spacingTop=-1;spacingLeft=3;spacingRight=3;rotatable=0;labelPosition=right;points=[];portConstraint=eastwest;" vertex="1" parent="pVsfDiIIZVp4WmUJKpTQ-12">
          <mxGeometry y="180" width="240" height="8" as="geometry" />
        </mxCell>
        <mxCell id="pVsfDiIIZVp4WmUJKpTQ-18" value="operations" style="text;html=1;strokeColor=none;fillColor=none;align=center;verticalAlign=middle;spacingLeft=4;spacingRight=4;overflow=hidden;rotatable=0;points=[[0,0.5],[1,0.5]];portConstraint=eastwest;whiteSpace=wrap;" vertex="1" parent="pVsfDiIIZVp4WmUJKpTQ-12">
          <mxGeometry y="188" width="240" height="20" as="geometry" />
        </mxCell>
        <mxCell id="pVsfDiIIZVp4WmUJKpTQ-19" value="&lt;div&gt;+brightnessDistribution()&lt;/div&gt;" style="text;html=1;strokeColor=none;fillColor=none;align=left;verticalAlign=middle;spacingLeft=4;spacingRight=4;overflow=hidden;rotatable=0;points=[[0,0.5],[1,0.5]];portConstraint=eastwest;whiteSpace=wrap;" vertex="1" parent="pVsfDiIIZVp4WmUJKpTQ-12">
          <mxGeometry y="208" width="240" height="42" as="geometry" />
        </mxCell>
        <mxCell id="pVsfDiIIZVp4WmUJKpTQ-21" style="edgeStyle=orthogonalEdgeStyle;rounded=0;orthogonalLoop=1;jettySize=auto;html=1;exitX=0.5;exitY=0;exitDx=0;exitDy=0;entryX=0.543;entryY=0.997;entryDx=0;entryDy=0;entryPerimeter=0;" edge="1" parent="1" source="pVsfDiIIZVp4WmUJKpTQ-12" target="pVsfDiIIZVp4WmUJKpTQ-10">
          <mxGeometry relative="1" as="geometry" />
        </mxCell>
        <mxCell id="pVsfDiIIZVp4WmUJKpTQ-30" style="edgeStyle=orthogonalEdgeStyle;rounded=0;orthogonalLoop=1;jettySize=auto;html=1;exitX=0.5;exitY=0;exitDx=0;exitDy=0;" edge="1" parent="1" source="pVsfDiIIZVp4WmUJKpTQ-22">
          <mxGeometry relative="1" as="geometry">
            <mxPoint x="438" y="420" as="targetPoint" />
          </mxGeometry>
        </mxCell>
        <mxCell id="pVsfDiIIZVp4WmUJKpTQ-22" value="&amp;lt;&amp;lt;keyword&amp;gt;&amp;gt;&lt;br&gt;&lt;b&gt;Resolved&lt;/b&gt; &lt;b&gt;Star&lt;/b&gt;&lt;br&gt;{abstract}" style="swimlane;fontStyle=0;align=center;verticalAlign=top;childLayout=stackLayout;horizontal=1;startSize=55;horizontalStack=0;resizeParent=1;resizeParentMax=0;resizeLast=0;collapsible=0;marginBottom=0;html=1;whiteSpace=wrap;" vertex="1" parent="1">
          <mxGeometry x="318" y="780" width="240" height="250" as="geometry" />
        </mxCell>
        <mxCell id="pVsfDiIIZVp4WmUJKpTQ-23" value="attributes" style="text;html=1;strokeColor=none;fillColor=none;align=center;verticalAlign=middle;spacingLeft=4;spacingRight=4;overflow=hidden;rotatable=0;points=[[0,0.5],[1,0.5]];portConstraint=eastwest;whiteSpace=wrap;" vertex="1" parent="pVsfDiIIZVp4WmUJKpTQ-22">
          <mxGeometry y="55" width="240" height="20" as="geometry" />
        </mxCell>
        <mxCell id="pVsfDiIIZVp4WmUJKpTQ-24" value="&lt;div&gt;+diameter: float&lt;/div&gt;" style="text;html=1;strokeColor=none;fillColor=none;align=left;verticalAlign=middle;spacingLeft=4;spacingRight=4;overflow=hidden;rotatable=0;points=[[0,0.5],[1,0.5]];portConstraint=eastwest;whiteSpace=wrap;" vertex="1" parent="pVsfDiIIZVp4WmUJKpTQ-22">
          <mxGeometry y="75" width="240" height="65" as="geometry" />
        </mxCell>
        <mxCell id="pVsfDiIIZVp4WmUJKpTQ-25" value="inherited attribute2" style="text;html=1;strokeColor=none;fillColor=none;align=left;verticalAlign=middle;spacingLeft=4;spacingRight=4;overflow=hidden;rotatable=0;points=[[0,0.5],[1,0.5]];portConstraint=eastwest;fontColor=#808080;whiteSpace=wrap;" vertex="1" parent="pVsfDiIIZVp4WmUJKpTQ-22">
          <mxGeometry y="140" width="240" height="20" as="geometry" />
        </mxCell>
        <mxCell id="pVsfDiIIZVp4WmUJKpTQ-26" value="..." style="text;html=1;strokeColor=none;fillColor=none;align=left;verticalAlign=middle;spacingLeft=4;spacingRight=4;overflow=hidden;rotatable=0;points=[[0,0.5],[1,0.5]];portConstraint=eastwest;whiteSpace=wrap;" vertex="1" parent="pVsfDiIIZVp4WmUJKpTQ-22">
          <mxGeometry y="160" width="240" height="20" as="geometry" />
        </mxCell>
        <mxCell id="pVsfDiIIZVp4WmUJKpTQ-27" value="" style="line;strokeWidth=1;fillColor=none;align=left;verticalAlign=middle;spacingTop=-1;spacingLeft=3;spacingRight=3;rotatable=0;labelPosition=right;points=[];portConstraint=eastwest;" vertex="1" parent="pVsfDiIIZVp4WmUJKpTQ-22">
          <mxGeometry y="180" width="240" height="8" as="geometry" />
        </mxCell>
        <mxCell id="pVsfDiIIZVp4WmUJKpTQ-28" value="operations" style="text;html=1;strokeColor=none;fillColor=none;align=center;verticalAlign=middle;spacingLeft=4;spacingRight=4;overflow=hidden;rotatable=0;points=[[0,0.5],[1,0.5]];portConstraint=eastwest;whiteSpace=wrap;" vertex="1" parent="pVsfDiIIZVp4WmUJKpTQ-22">
          <mxGeometry y="188" width="240" height="20" as="geometry" />
        </mxCell>
        <mxCell id="pVsfDiIIZVp4WmUJKpTQ-29" value="+brightnessDistribution()" style="text;html=1;strokeColor=none;fillColor=none;align=left;verticalAlign=middle;spacingLeft=4;spacingRight=4;overflow=hidden;rotatable=0;points=[[0,0.5],[1,0.5]];portConstraint=eastwest;whiteSpace=wrap;" vertex="1" parent="pVsfDiIIZVp4WmUJKpTQ-22">
          <mxGeometry y="208" width="240" height="42" as="geometry" />
        </mxCell>
        <mxCell id="GMDr2rOAlKDqctOPn4CA-1" value="&amp;lt;&amp;lt;keyword&amp;gt;&amp;gt;&lt;br&gt;&lt;b&gt;PointLike&lt;/b&gt;&lt;br&gt;{abstract}" style="swimlane;fontStyle=0;align=center;verticalAlign=top;childLayout=stackLayout;horizontal=1;startSize=55;horizontalStack=0;resizeParent=1;resizeParentMax=0;resizeLast=0;collapsible=0;marginBottom=0;html=1;whiteSpace=wrap;" vertex="1" parent="1">
          <mxGeometry x="520" y="510" width="240" height="185" as="geometry" />
        </mxCell>
        <mxCell id="GMDr2rOAlKDqctOPn4CA-2" value="attributes" style="text;html=1;strokeColor=none;fillColor=none;align=center;verticalAlign=middle;spacingLeft=4;spacingRight=4;overflow=hidden;rotatable=0;points=[[0,0.5],[1,0.5]];portConstraint=eastwest;whiteSpace=wrap;" vertex="1" parent="GMDr2rOAlKDqctOPn4CA-1">
          <mxGeometry y="55" width="240" height="20" as="geometry" />
        </mxCell>
        <mxCell id="GMDr2rOAlKDqctOPn4CA-4" value="inherited attribute2" style="text;html=1;strokeColor=none;fillColor=none;align=left;verticalAlign=middle;spacingLeft=4;spacingRight=4;overflow=hidden;rotatable=0;points=[[0,0.5],[1,0.5]];portConstraint=eastwest;fontColor=#808080;whiteSpace=wrap;" vertex="1" parent="GMDr2rOAlKDqctOPn4CA-1">
          <mxGeometry y="75" width="240" height="20" as="geometry" />
        </mxCell>
        <mxCell id="GMDr2rOAlKDqctOPn4CA-5" value="..." style="text;html=1;strokeColor=none;fillColor=none;align=left;verticalAlign=middle;spacingLeft=4;spacingRight=4;overflow=hidden;rotatable=0;points=[[0,0.5],[1,0.5]];portConstraint=eastwest;whiteSpace=wrap;" vertex="1" parent="GMDr2rOAlKDqctOPn4CA-1">
          <mxGeometry y="95" width="240" height="20" as="geometry" />
        </mxCell>
        <mxCell id="GMDr2rOAlKDqctOPn4CA-6" value="" style="line;strokeWidth=1;fillColor=none;align=left;verticalAlign=middle;spacingTop=-1;spacingLeft=3;spacingRight=3;rotatable=0;labelPosition=right;points=[];portConstraint=eastwest;" vertex="1" parent="GMDr2rOAlKDqctOPn4CA-1">
          <mxGeometry y="115" width="240" height="8" as="geometry" />
        </mxCell>
        <mxCell id="GMDr2rOAlKDqctOPn4CA-7" value="operations" style="text;html=1;strokeColor=none;fillColor=none;align=center;verticalAlign=middle;spacingLeft=4;spacingRight=4;overflow=hidden;rotatable=0;points=[[0,0.5],[1,0.5]];portConstraint=eastwest;whiteSpace=wrap;" vertex="1" parent="GMDr2rOAlKDqctOPn4CA-1">
          <mxGeometry y="123" width="240" height="20" as="geometry" />
        </mxCell>
        <mxCell id="GMDr2rOAlKDqctOPn4CA-8" value="&lt;div&gt;+brightnessDistribution()&lt;/div&gt;" style="text;html=1;strokeColor=none;fillColor=none;align=left;verticalAlign=middle;spacingLeft=4;spacingRight=4;overflow=hidden;rotatable=0;points=[[0,0.5],[1,0.5]];portConstraint=eastwest;whiteSpace=wrap;" vertex="1" parent="GMDr2rOAlKDqctOPn4CA-1">
          <mxGeometry y="143" width="240" height="42" as="geometry" />
        </mxCell>
        <mxCell id="GMDr2rOAlKDqctOPn4CA-10" style="edgeStyle=orthogonalEdgeStyle;rounded=0;orthogonalLoop=1;jettySize=auto;html=1;exitX=0.5;exitY=0;exitDx=0;exitDy=0;entryX=0.541;entryY=1.014;entryDx=0;entryDy=0;entryPerimeter=0;" edge="1" parent="1" source="GMDr2rOAlKDqctOPn4CA-1" target="pVsfDiIIZVp4WmUJKpTQ-10">
          <mxGeometry relative="1" as="geometry" />
        </mxCell>
        <mxCell id="GMDr2rOAlKDqctOPn4CA-11" value="&lt;h1 style=&quot;margin-top: 0px;&quot;&gt;The Source&lt;br&gt;&lt;/h1&gt;&lt;p&gt;The initial field that carries the scientific information that we want to retrieve from the fringe pattern.&amp;nbsp;&lt;/p&gt;&lt;p&gt;&lt;b&gt;Parameters:&lt;/b&gt;&lt;br&gt;&lt;/p&gt;&lt;ul&gt;&lt;li&gt;Resolution: the grid resolution defines the source resolution.&lt;/li&gt;&lt;li&gt;Field of View: a rectangular slice of sky seen by our simulation (e.g., 1&#39;x1&#39;).&lt;br&gt;&lt;/li&gt;&lt;li&gt;Position: defines the centre of the source in the sky (distance, angle).&lt;/li&gt;&lt;li&gt;Type: defines the source generated for the system (e.g., unresolved star).&lt;/li&gt;&lt;li&gt;Magnitude: defines flux.&lt;/li&gt;&lt;li&gt;Waveband: defines the wavelength range that is being generated (e.g., K-band 2.2 \(\mu m\))&lt;/li&gt;&lt;li&gt;Source Grid: mesh grid containing the positions of the locations with pixel scale defined&amp;nbsp;&lt;/li&gt;&lt;/ul&gt;&lt;div align=&quot;center&quot;&gt;pixel scale = field of view / resolution&lt;/div&gt;&lt;div align=&quot;center&quot;&gt;&lt;br&gt;&lt;/div&gt;&lt;div align=&quot;left&quot;&gt;&lt;ul&gt;&lt;li&gt;Amplitude Values: values of amplitude related to the mesh grid and populated from the generateField() function of the Source. Represents the sampled brightness distribution in the source plane.&lt;/li&gt;&lt;li&gt;Phase Values: values of phase related to the mesh grid and populated from the generateField() function of the Source. Represents the sampled brightness distribution in the source plane.&lt;/li&gt;&lt;/ul&gt;&amp;nbsp;&lt;b&gt;Operations:&lt;/b&gt;&lt;/div&gt;&lt;div align=&quot;left&quot;&gt;&lt;b&gt;&lt;br&gt;&lt;/b&gt;&lt;/div&gt;&lt;div align=&quot;left&quot;&gt;&lt;ul&gt;&lt;li&gt;Initialize: populates the attributes of the source object and creates the source grid and intensity values matrix - calls generate field.&lt;br&gt;&lt;/li&gt;&lt;/ul&gt;&lt;/div&gt;&lt;div&gt;&lt;ul&gt;&lt;li&gt;Generate Field: Function that populates the intensity values matrix, knowing the brightness distribution of the source type.&lt;/li&gt;&lt;/ul&gt;&lt;div&gt;&lt;ul&gt;&lt;li&gt;Show: returns the phase&lt;br&gt;&lt;/li&gt;&lt;/ul&gt;&lt;/div&gt;&lt;div&gt;&lt;br&gt;&lt;/div&gt;&lt;div&gt;&lt;b&gt;Example of pseudo-code:&lt;/b&gt;&lt;/div&gt;&lt;div&gt;&lt;b&gt;&lt;br&gt;&lt;/b&gt;&lt;/div&gt;&lt;div&gt;&lt;ul&gt;&lt;li&gt;&lt;b&gt;from&lt;/b&gt; Simulator &lt;b&gt;import &lt;/b&gt;Source &lt;b&gt;# import the Source module&lt;/b&gt;&lt;br&gt;&lt;/li&gt;&lt;li&gt;resolution, fov, position, type, magnitude, waveBand = 64, 10, [0, 0], &quot;pointLike&quot;, 10, &quot;K&quot; &lt;b&gt;# define source attributes&lt;/b&gt;&lt;/li&gt;&lt;li&gt;source = source.initialize(resolution, fov, position, type, magnitude, waveBand) &lt;b&gt;# initialize the source object&lt;br&gt;&lt;/b&gt;&lt;/li&gt;&lt;li&gt;source.show() &lt;b&gt;# Visualize the source brightness distribution&lt;/b&gt;&lt;/li&gt;&lt;/ul&gt;&lt;div&gt;&lt;br&gt;&lt;/div&gt;&lt;div&gt;&lt;b&gt;Examples of associated classes:&lt;/b&gt; Binary&lt;/div&gt;&lt;div&gt;&lt;br&gt;&lt;/div&gt;&lt;div&gt;The binary class is described as&lt;/div&gt;&lt;div&gt;&lt;br&gt;&lt;/div&gt;&lt;div align=&quot;center&quot;&gt;\( I(\alpha, \alpha_0, M) = I_0( M ) \left( \delta (\alpha + \alpha_0/2) +&amp;nbsp;\delta (\alpha - \alpha_0/2) \right) \)&lt;br&gt;&lt;/div&gt;&lt;div align=&quot;center&quot;&gt;&lt;br&gt;&lt;/div&gt;&lt;div align=&quot;left&quot;&gt;where \( \alpha \) and \( \alpha_0 \) define the grid position and binary separation respectly. When we call the generateField() function, we effectively light up two pixels placed \( \alpha_0 \) apart with the intensity set by the magnitude of the source class, \( M \).&lt;br&gt;&lt;/div&gt;&lt;/div&gt;&lt;/div&gt;" style="text;html=1;whiteSpace=wrap;overflow=hidden;rounded=0;" vertex="1" parent="1">
          <mxGeometry x="850" width="660" height="850" as="geometry" />
        </mxCell>
        <mxCell id="GMDr2rOAlKDqctOPn4CA-13" value="&lt;div&gt;+ public&lt;/div&gt;&lt;div&gt;- private&lt;/div&gt;&lt;div&gt;# protected (visible to subclasses)&lt;/div&gt;&lt;div&gt;~ default visibility (visible to classes in the same package)&lt;br&gt;&lt;/div&gt;" style="text;html=1;align=left;verticalAlign=middle;resizable=0;points=[];autosize=1;strokeColor=none;fillColor=none;" vertex="1" parent="1">
          <mxGeometry x="210" y="-40" width="240" height="70" as="geometry" />
        </mxCell>
        <mxCell id="GMDr2rOAlKDqctOPn4CA-15" value="contemplar direcionar para Python diretamente" style="text;html=1;align=center;verticalAlign=middle;resizable=0;points=[];autosize=1;strokeColor=none;fillColor=none;" vertex="1" parent="1">
          <mxGeometry x="860" y="-60" width="270" height="30" as="geometry" />
        </mxCell>
      </root>
    </mxGraphModel>
  </diagram>
</mxfile>
